<?xml version="1.0" encoding="UTF-8"?>
<svg xmlns="http://www.w3.org/2000/svg" width="787" height="604" viewBox="0 0 787 604">
  <defs>
    <linearGradient id="g" x1="0%" y1="0%" x2="100%" y2="0%">
      <stop offset="0%"   stop-color="#7C3AED"/>
      <stop offset="50%"  stop-color="#A78BFA"/>
      <stop offset="100%" stop-color="#EC4899"/>
    </linearGradient>
  </defs>
  <path id="8" d="M 164.288,168.350 C 184.557,153.170 204.698,144.604 231.500,139.764 C 241.419,137.973 333.216,137.975 341,139.766 C 354.617,142.900 368.421,150.810 375.223,159.379 C 377.708,162.509 390.713,187.530 408.682,223.750 C 424.849,256.337 438.401,283 438.799,283 C 439.197,283 447.389,267.249 457.002,247.997 C 466.615,228.745 474.813,213.108 475.219,213.247 C 475.625,213.386 483.629,228.789 493.005,247.476 C 502.381,266.163 510.461,281.861 510.959,282.359 C 511.500,282.900 524.211,258.573 542.537,221.925 C 571.568,163.870 573.514,160.289 578.882,155.043 C 585.792,148.290 594.306,143.624 604.686,140.901 C 615.261,138.127 655,136.962 655,139.425 C 655,140.573 512.834,425.188 511.431,426.848 C 511.269,427.040 503.118,411.178 493.318,391.599 C 483.518,372.020 475.272,356 474.993,356 C 474.714,356 466.447,372.088 456.620,391.750 C 450.665,403.667 444.709,415.583 438.754,427.500 C 430.659,411.333 422.564,395.167 414.469,379 C 395.839,341.794 390.014,330.966 389.450,332.500 C 386.972,339.244 378.919,354.720 374.182,361.843 C 355.743,389.568 329.499,409.813 299,419.838 C 278.802,426.477 281.177,426.281 215.648,426.717 C 195.697,426.850 175.747,426.982 155.796,427.115 C 156.030,425.346 156.263,423.577 156.497,421.808 C 158.783,404.493 168.090,387.653 180.833,377.770 C 189.039,371.406 192.538,369.480 201.500,366.401 C 209.276,363.729 210.327,363.633 239,362.958 C 272.392,362.171 277.016,361.361 291,353.847 C 306.742,345.388 318.195,333.486 325.975,317.500 C 332.216,304.676 333.479,298.665 333.432,282 C 333.393,268.305 333.210,266.973 330.136,258 C 315.512,215.311 270.513,192.447 228.042,206.126 C 225.739,206.868 223.436,207.609 221.133,208.351 C 221.001,222.543 220.868,236.733 220.736,250.925 C 220.295,298.253 220.214,298.921 213.219,312.500 C 208.094,322.450 195.858,334.491 185.947,339.338 C 177.807,343.319 169.266,345.713 161.500,346.192 C 159.833,346.295 158.167,346.397 156.500,346.500 C 156.429,317.833 156.359,289.167 156.288,260.500 C 156.217,231.833 156.148,203.167 156.077,174.500 C 158.814,172.450 161.551,170.400 164.288,168.350 Z" fill="url(#g)" stroke="none" />
</svg>
