<svg xmlns="http://www.w3.org/2000/svg" viewBox="0 0 100 80">
  <defs>
    <linearGradient id="g" x1="0%" y1="0%" x2="100%" y2="100%">
      <stop offset="0%" stop-color="#7C3AED"/>
      <stop offset="50%" stop-color="#A78BFA"/>
      <stop offset="100%" stop-color="#EC4899"/>
    </linearGradient>
  </defs>
  <!-- D letter -->
  <path d="M5 8 L5 72 L28 72 C44 72 56 62 56 40 C56 18 44 8 28 8 Z M18 20 L26 20 C36 20 42 28 42 40 C42 52 36 60 26 60 L18 60 Z" fill="url(#g)" fill-rule="evenodd"/>
  <!-- W letter -->
  <path d="M54 8 L63 52 L72 28 L81 52 L90 8 L100 8 L87 72 L78 72 L72 50 L66 72 L57 72 L44 8 Z" fill="url(#g)"/>
</svg>
